<?xml version="1.0" encoding="UTF-8" standalone="no"?>
<!DOCTYPE svg PUBLIC "-//W3C//DTD SVG 1.1//EN"
 "http://www.w3.org/Graphics/SVG/1.1/DTD/svg11.dtd">
<!-- Generated by graphviz version 2.40.1 (20161225.0304)
 -->
<!-- Title: network Pages: 1 -->
<svg width="136pt" height="298pt"
 viewBox="0.00 0.00 136.00 298.00" xmlns="http://www.w3.org/2000/svg" xmlns:xlink="http://www.w3.org/1999/xlink">
<g id="graph0" class="graph" transform="scale(1 1) rotate(0) translate(4 294)">
<title>network</title>
<polygon fill="#ffffff" stroke="transparent" points="-4,4 -4,-294 132,-294 132,4 -4,4"/>
<g id="clust2" class="cluster">
<title>cluster_1396078460937419741</title>
<polygon fill="none" stroke="#000000" points="8,-8 8,-282 120,-282 120,-8 8,-8"/>
</g>
<!-- node1 -->
<g id="node1" class="node">
<title>node1</title>
<polygon fill="#c1b2ff" stroke="transparent" points="105.5,-274 22.5,-274 22.5,-212 105.5,-212 105.5,-274"/>
<polygon fill="none" stroke="#000000" points="25,-244 25,-266 104,-266 104,-244 25,-244"/>
<text text-anchor="start" x="47.0098" y="-251.4" font-family="Times,serif" font-weight="bold" font-size="14.00" fill="#000000">Dense</text>
<polygon fill="none" stroke="#000000" points="25,-220 25,-242 75,-242 75,-220 25,-220"/>
<text text-anchor="start" x="27.8394" y="-226.4" font-family="Times,serif" font-size="14.00" fill="#000000">(20, 50)</text>
<polygon fill="none" stroke="#000000" points="77,-220 77,-242 104,-242 104,-220 77,-220"/>
<text text-anchor="start" x="79.6171" y="-227.4" font-family="Times,serif" font-style="italic" font-size="14.00" fill="#000000">relu</text>
</g>
<!-- node2 -->
<g id="node2" class="node">
<title>node2</title>
<polygon fill="#c1b2ff" stroke="transparent" points="100,-176 30,-176 30,-114 100,-114 100,-176"/>
<polygon fill="none" stroke="#000000" points="32,-146 32,-168 98,-168 98,-146 32,-146"/>
<text text-anchor="start" x="47.5098" y="-153.4" font-family="Times,serif" font-weight="bold" font-size="14.00" fill="#000000">Dense</text>
<polygon fill="none" stroke="#000000" points="32,-122 32,-144 82,-144 82,-122 32,-122"/>
<text text-anchor="start" x="34.8394" y="-128.4" font-family="Times,serif" font-size="14.00" fill="#000000">(50, 10)</text>
<polygon fill="none" stroke="#000000" points="84,-122 84,-144 98,-144 98,-122 84,-122"/>
<text text-anchor="start" x="86.9197" y="-129.4" font-family="Times,serif" font-style="italic" font-size="14.00" fill="#000000">σ</text>
</g>
<!-- node1&#45;&gt;node2 -->
<g id="edge1" class="edge">
<title>node1:c&#45;&gt;node2:c</title>
<path fill="none" stroke="#000000" d="M65,-213.8778C65,-208.6056 65,-194.5898 65,-184.2173"/>
<polygon fill="#000000" stroke="#000000" points="68.5001,-184.2045 65,-174.2046 61.5001,-184.2046 68.5001,-184.2045"/>
</g>
<!-- node3 -->
<g id="node3" class="node">
<title>node3</title>
<polygon fill="#c1b2ff" stroke="transparent" points="112.5,-78 15.5,-78 15.5,-16 112.5,-16 112.5,-78"/>
<polygon fill="none" stroke="#000000" points="18,-48 18,-70 111,-70 111,-48 18,-48"/>
<text text-anchor="start" x="47.0098" y="-55.4" font-family="Times,serif" font-weight="bold" font-size="14.00" fill="#000000">Dense</text>
<polygon fill="none" stroke="#000000" points="18,-24 18,-46 61,-46 61,-24 18,-24"/>
<text text-anchor="start" x="20.8394" y="-30.4" font-family="Times,serif" font-size="14.00" fill="#000000">(10, 1)</text>
<polygon fill="none" stroke="#000000" points="63,-24 63,-46 111,-46 111,-24 63,-24"/>
<text text-anchor="start" x="65.6115" y="-31.4" font-family="Times,serif" font-style="italic" font-size="14.00" fill="#000000">identity</text>
</g>
<!-- node2&#45;&gt;node3 -->
<g id="edge2" class="edge">
<title>node2:c&#45;&gt;node3:c</title>
<path fill="none" stroke="#000000" d="M65,-115.8778C65,-110.6056 65,-96.5898 65,-86.2173"/>
<polygon fill="#000000" stroke="#000000" points="68.5001,-86.2045 65,-76.2046 61.5001,-86.2046 68.5001,-86.2045"/>
</g>
</g>
</svg>
